<svg width="800" height="800" viewBox="0 0 24 24" fill="none" xmlns="http://www.w3.org/2000/svg"><path d="M14 12.5a1.5 1.5 0 1 1-3 0 1.5 1.5 0 0 1 3 0ZM16.5 10a1.5 1.5 0 1 0 0-3 1.5 1.5 0 0 0 0 3ZM13 6.5a1.5 1.5 0 1 1-3 0 1.5 1.5 0 0 1 3 0ZM7.5 12a1.5 1.5 0 1 0 0-3 1.5 1.5 0 0 0 0 3ZM14 17.5a1.5 1.5 0 1 1-3 0 1.5 1.5 0 0 1 3 0ZM7.5 17a1.5 1.5 0 1 0 0-3 1.5 1.5 0 0 0 0 3Z" fill="#0F0F0F"/><path fill-rule="evenodd" clip-rule="evenodd" d="M11.502 1.022c3.903-.23 8.062 1.302 10.307 4.39.7.961 1.014 2.224.84 3.42-.178 1.222-.876 2.4-2.202 3.063-.808.404-1.674 1.052-2.207 1.773-.524.71-.626 1.324-.346 1.885.53 1.057.995 2.373.917 3.634-.041.65-.228 1.308-.645 1.893-.417.587-1.021 1.04-1.795 1.349-1.761.704-3.743.735-5.563.392-1.822-.345-3.563-1.079-4.881-2.002-1.921-1.344-3.452-3.13-4.213-5.373-.764-2.25-.718-4.86.346-7.788 1.584-4.354 5.502-6.403 9.442-6.636Zm.118 1.997c-3.354.198-6.435 1.899-7.68 5.322-.936 2.574-.926 4.713-.332 6.463.596 1.757 1.815 3.222 3.465 4.377 1.071.75 2.544 1.38 4.106 1.674 1.565.296 3.14.24 4.45-.283.679-.272 1.139-.762 1.185-1.51.047-.738-.237-1.672-.708-2.615-.742-1.483-.252-2.915.525-3.967.77-1.04 1.915-1.87 2.922-2.374.674-.337 1.022-.91 1.117-1.562a2.744 2.744 0 0 0-.479-1.956c-1.755-2.413-5.182-3.77-8.571-3.57Z" fill="#0F0F0F"/></svg>